<svg width="32" height="28" xmlns="http://www.w3.org/2000/svg"><path d="M2.505 28h26.67c1.863 0 3.078-1.957 2.236-3.54L17.992 1.33c-.936-1.773-3.54-1.773-4.476 0L.27 24.454C-.567 26.138.643 28 2.505 28zm15.393-5.318c0 1.21-.937 2.146-2.147 2.146a2.116 2.116 0 01-2.146-2.146v-.095c0-1.21.936-2.147 2.146-2.147s2.147.943 2.147 2.242zM14.536 7.016h2.52c.652 0 1.12.563 1.026 1.305l-1.121 9.421c-.095.652-.563 1.12-1.21 1.12-.652 0-1.12-.468-1.21-1.12l-1.025-9.421c-.095-.742.368-1.305 1.02-1.305z" fill="#FFF" fill-rule="evenodd"/></svg>